<?xml version="1.0" encoding="UTF-8"?>
<svg id="Layer_1" data-name="Layer 1" xmlns="http://www.w3.org/2000/svg" xmlns:xlink="http://www.w3.org/1999/xlink" viewBox="0 0 1395 1665.75">
  <defs>
    <style>
      .cls-1, .cls-2, .cls-3 {
        fill: #370898;
      }

      .cls-4 {
        letter-spacing: -.03em;
      }

      .cls-4, .cls-5, .cls-6, .cls-7, .cls-8, .cls-3, .cls-9 {
        font-family: Bahnschrift-SemiLight, Bahnschrift;
        font-variation-settings: 'wght' 350, 'wdth' 100;
        font-weight: 300;
      }

      .cls-10 {
        font-family: Bahnschrift-Bold, Bahnschrift;
        font-variation-settings: 'wght' 700, 'wdth' 100;
        font-weight: 700;
      }

      .cls-11, .cls-8 {
        letter-spacing: -.04em;
      }

      .cls-6, .cls-12 {
        letter-spacing: 0em;
      }

      .cls-7 {
        letter-spacing: -.01em;
      }

      .cls-2 {
        font-size: 36px;
      }

      .cls-13, .cls-9 {
        letter-spacing: -.02em;
      }

      .cls-3 {
        font-size: 124px;
      }
    </style>
  </defs>
  <image width="1536" height="1536" transform="scale(.41)" xlink:href="../../ppt/logo_circle.png"/>
  <text class="cls-3" transform="translate(562.51 285.14)"><tspan x="0" y="0">MR-</tspan><tspan class="cls-11" x="236.92" y="0">P</tspan><tspan x="308.67" y="0">AN</tspan><tspan class="cls-13" x="475.78" y="0">LO</tspan><tspan class="cls-12" x="622.06" y="0">G</tspan><tspan x="701.01" y="0">IN</tspan></text>
  <text class="cls-2" transform="translate(603.31 378.55)"><tspan class="cls-5" x="0" y="0">I</tspan><tspan class="cls-9" x="9.91" y="0">RO</tspan><tspan class="cls-5" x="55.21" y="0">S 20</tspan><tspan class="cls-4" x="125.51" y="0">2</tspan><tspan class="cls-5" x="143.05" y="0">4 </tspan><tspan class="cls-8" x="173.2" y="0">W</tspan><tspan class="cls-5" x="202.1" y="0">orkshop on </tspan><tspan class="cls-10" x="393.15" y="0">M</tspan><tspan class="cls-5" x="421.21" y="0">ulti-</tspan><tspan class="cls-10" x="489.69" y="0">r</tspan><tspan class="cls-5" x="505.05" y="0">obot </tspan><tspan class="cls-10" x="585.28" y="0">P</tspan><tspan class="cls-5" x="607.69" y="0">e</tspan><tspan class="cls-6" x="626.99" y="0">r</tspan><tspan class="cls-5" x="642.01" y="0">cetion </tspan><tspan class="cls-10" x="32.11" y="43.2">a</tspan><tspan class="cls-5" x="51.27" y="43.2">nd </tspan><tspan class="cls-10" x="100.45" y="43.2">N</tspan><tspan class="cls-7" x="125.66" y="43.2">a</tspan><tspan class="cls-5" x="144.29" y="43.2">vigation in </tspan><tspan class="cls-10" x="318.88" y="43.2">Log</tspan><tspan class="cls-5" x="378.54" y="43.2">istics and </tspan><tspan class="cls-10" x="541.63" y="43.2">In</tspan><tspan class="cls-5" x="571.65" y="43.2">spection</tspan></text>
  <rect class="cls-1" x="566" y="315" width="815" height="11"/>
  <text/>
</svg>